# Blender v2.93.0 OBJ File: ''
# www.blender.org
o crate002_Mesh
v -0.246359 0.042366 0.315148
v 0.255199 0.042366 0.315148
v 0.255199 0.559277 0.315148
v -0.246359 0.559277 0.315148
v -0.246359 0.042366 0.283838
v 0.255199 0.042366 0.283838
v 0.255199 0.559277 0.283838
v -0.246359 0.559277 0.283838
v 0.297411 0.006796 0.315068
v 0.248692 0.485196 0.278360
v 0.176526 0.544867 0.279335
v -0.178600 0.043192 0.278361
v 0.241992 0.479805 0.294692
v 0.171876 0.531083 0.295639
v -0.173442 0.050073 0.294693
v -0.240885 0.113419 0.279335
v -0.230644 0.118320 0.295639
v 0.038316 0.286477 0.294692
v 0.042458 0.289219 0.278361
v 0.304605 0.007120 0.308952
v 0.304604 0.049270 -0.244178
v 0.304604 0.550828 -0.244178
v 0.304604 0.550828 0.272733
v 0.304605 0.049270 0.272733
v 0.273294 0.049270 -0.244178
v 0.273294 0.550828 -0.244178
v 0.273294 0.550828 0.272733
v 0.273295 0.049270 0.272733
v 0.304604 0.594987 -0.279840
v 0.304605 0.594550 0.309023
v 0.297441 0.000049 0.308952
v 0.304604 0.006076 -0.279353
v 0.267817 0.544320 0.198652
v 0.268792 0.472154 0.258323
v 0.267817 0.117029 -0.243352
v 0.284149 0.537621 0.193261
v 0.285096 0.467505 0.244539
v 0.284149 0.122187 -0.236471
v 0.268792 0.054743 -0.173125
v 0.285096 0.064985 -0.168225
v 0.284149 0.333944 -0.000067
v 0.267817 0.338087 0.002675
v -0.288509 0.000049 0.308952
v -0.246359 0.000049 -0.244178
v 0.255199 0.000049 -0.244178
v 0.255199 0.000049 0.272733
v -0.246359 0.000049 0.272733
v -0.246359 0.031359 -0.244178
v 0.255199 0.031359 -0.244178
v 0.255199 0.031359 0.272733
v -0.246359 0.031359 0.272733
v -0.295580 0.006076 -0.279353
v 0.248692 0.036836 0.198652
v 0.176526 0.035862 0.258323
v -0.178600 0.036836 -0.243352
v 0.241992 0.020504 0.193261
v 0.171876 0.019558 0.244539
v -0.173442 0.020504 -0.236471
v -0.240885 0.035862 -0.173125
v -0.230644 0.019557 -0.168225
v 0.038316 0.020504 -0.000067
v 0.042458 0.036836 0.002675
v 0.297533 0.601621 0.309023
v 0.255383 0.601621 -0.244107
v -0.246174 0.601621 -0.244107
v -0.246174 0.601621 0.272804
v 0.255383 0.601621 0.272804
v 0.255383 0.570311 -0.244107
v -0.246174 0.570311 -0.244107
v -0.246174 0.570311 0.272804
v 0.255383 0.570311 0.272804
v -0.288386 0.601541 -0.279678
v 0.297441 0.594237 0.315088
v 0.297533 0.601561 -0.279840
v -0.239667 0.564834 0.198723
v -0.167501 0.565808 0.258394
v 0.187625 0.564834 -0.243281
v -0.232967 0.581166 0.193332
v -0.162851 0.582112 0.244610
v 0.182467 0.581166 -0.236400
v 0.249910 0.565808 -0.173054
v 0.239668 0.582113 -0.168154
v -0.029291 0.581166 0.000004
v -0.033433 0.564834 0.002746
v -0.288509 0.595496 0.315148
v -0.295580 0.595425 -0.279353
v -0.295580 0.042295 -0.237203
v -0.295580 0.042295 0.264355
v -0.295580 0.559206 0.264355
v -0.295580 0.559206 -0.237203
v -0.261834 0.042295 -0.226803
v -0.261834 0.042295 0.274755
v -0.261834 0.559206 0.274755
v -0.261834 0.559206 -0.226803
v -0.287914 0.006634 0.313865
v -0.295580 0.006634 0.308514
v -0.288417 0.006076 -0.286424
v -0.288416 0.601561 0.307764
v -0.295580 0.595425 0.306505
v -0.288417 0.595425 -0.286424
v -0.288509 0.000049 -0.280397
v -0.258792 0.485125 0.257847
v -0.259767 0.544796 0.185681
v -0.258793 0.043121 -0.169444
v -0.275124 0.479734 0.251147
v -0.276071 0.531012 0.181031
v -0.275125 0.050002 -0.164286
v -0.259767 0.113348 -0.231730
v -0.276071 0.118248 -0.221488
v -0.275124 0.286406 0.047471
v -0.258793 0.289148 0.051614
v 0.297533 0.595425 -0.286424
v 0.255383 0.042295 -0.286424
v -0.246174 0.042295 -0.286424
v -0.246174 0.559206 -0.286424
v 0.255383 0.559206 -0.286424
v 0.255383 0.042295 -0.255114
v -0.246174 0.042295 -0.255114
v -0.246174 0.559206 -0.255114
v 0.255383 0.559206 -0.255114
v 0.297441 0.000049 -0.280397
v 0.297533 0.006076 -0.286424
v -0.239667 0.485125 -0.249637
v -0.167501 0.544796 -0.250611
v 0.187625 0.043121 -0.249637
v -0.232967 0.479734 -0.265969
v -0.162851 0.531012 -0.266916
v 0.182467 0.050002 -0.265969
v 0.249910 0.113348 -0.250611
v 0.239668 0.118248 -0.266916
v -0.029291 0.286406 -0.265969
v -0.033433 0.289148 -0.249637
vt 0.465882 0.538886
vt 0.465882 0.986696
vt 0.018072 0.986696
vt 0.018072 0.538886
vt 0.727008 0.524745
vt 0.727147 0.016205
vt 0.757029 0.044239
vt 0.757223 0.490760
vt 0.006040 0.016760
vt 0.503113 0.013848
vt 0.471186 0.046502
vt 0.036510 0.047230
vt 0.006155 0.016575
vt 0.502529 0.014633
vt 0.471416 0.046042
vt 0.036588 0.047239
vt 0.757056 0.490699
vt 0.757056 0.043881
vt 0.781742 0.047160
vt 0.781742 0.493979
vt 0.780738 0.047714
vt 0.781607 0.493803
vt 0.471186 0.069136
vt 0.036510 0.069864
vt 0.471525 0.069264
vt 0.036287 0.071373
vt 0.727078 0.524708
vt 0.727159 0.016224
vt 0.814842 0.507691
vt 0.801697 0.042897
vt 0.868190 0.280567
vt 0.883091 0.505250
vt 0.883672 0.518730
vt 0.810732 0.523209
vt 0.788983 0.035129
vt 0.802080 0.518161
vt 0.796557 0.028687
vt 0.870274 0.008318
vt 0.871517 0.022993
vt 0.880428 0.284017
vt 0.895622 0.511201
vt 0.883782 0.016208
vt 0.928129 0.539527
vt 0.928129 0.987338
vt 0.480318 0.987338
vt 0.480318 0.539527
vt 0.989570 0.486323
vt 0.988466 0.994679
vt 0.957671 0.963655
vt 0.957215 0.517772
vt 0.715955 0.016721
vt 0.716678 0.522504
vt 0.680481 0.484934
vt 0.680251 0.053575
vt 0.572951 0.529440
vt 0.572690 0.022020
vt 0.601957 0.051868
vt 0.604065 0.498030
vt 0.945853 0.485647
vt 0.942093 0.048397
vt 0.969493 0.047791
vt 0.971863 0.485912
vt 0.934001 0.963656
vt 0.934001 0.517772
vt 0.653306 0.485393
vt 0.653306 0.053756
vt 0.625179 0.051758
vt 0.627287 0.497921
vt 0.722805 0.528967
vt 0.563762 0.022003
vt 0.564906 0.529163
vt 0.908582 0.523027
vt 0.904509 0.012073
vt 0.813758 0.507691
vt 0.800613 0.042897
vt 0.867107 0.280567
vt 0.882008 0.505250
vt 0.882589 0.518730
vt 0.809649 0.523209
vt 0.787900 0.035129
vt 0.802235 0.517879
vt 0.796456 0.028584
vt 0.869191 0.008318
vt 0.870434 0.022993
vt 0.880352 0.284219
vt 0.894539 0.511201
vt 0.883731 0.016446
vt 0.467829 0.082779
vt 0.467829 0.530589
vt 0.020019 0.530589
vt 0.020019 0.082779
vt 0.534174 0.499572
vt 0.533261 0.054404
vt 0.716181 0.016484
vt 0.716562 0.522246
vt 0.680822 0.485056
vt 0.680311 0.053614
vt 0.006155 0.016575
vt 0.502529 0.014633
vt 0.471416 0.046042
vt 0.036588 0.047239
vt 0.945761 0.485801
vt 0.942130 0.048389
vt 0.969459 0.047823
vt 0.971863 0.485870
vt 0.510047 0.499344
vt 0.510047 0.054404
vt 0.653339 0.485488
vt 0.653127 0.054235
vt 0.471525 0.069264
vt 0.036287 0.071373
vt 0.722998 0.528937
vt 0.502495 0.007216
vt 0.006043 0.009620
vt 0.908647 0.523056
vt 0.904511 0.012061
vt 0.814842 0.508128
vt 0.801697 0.043334
vt 0.868190 0.281004
vt 0.883091 0.505687
vt 0.883672 0.519167
vt 0.810732 0.523646
vt 0.788983 0.035566
vt 0.802080 0.518597
vt 0.796403 0.028814
vt 0.870274 0.008755
vt 0.871517 0.023430
vt 0.880428 0.284454
vt 0.895622 0.511638
vt 0.883782 0.016645
vt 0.465882 0.538886
vt 0.465882 0.986696
vt 0.018072 0.986696
vt 0.018072 0.538886
vt 0.727008 0.524745
vt 0.727147 0.016205
vt 0.757029 0.044239
vt 0.757223 0.490760
vt 0.006040 0.016760
vt 0.503113 0.013848
vt 0.471186 0.046502
vt 0.036510 0.047230
vt 0.006155 0.016575
vt 0.502529 0.014633
vt 0.471416 0.046042
vt 0.036588 0.047239
vt 0.757056 0.490699
vt 0.757056 0.043881
vt 0.781742 0.047160
vt 0.781742 0.493979
vt 0.780738 0.047714
vt 0.781607 0.493803
vt 0.471186 0.069136
vt 0.036510 0.069864
vt 0.471525 0.069264
vt 0.036287 0.071373
vt 0.503113 0.006619
vt 0.509372 0.010234
vt 0.006040 0.009532
vt 0.502495 0.007216
vt 0.006043 0.009620
vt 0.727078 0.524708
vt 0.727159 0.016224
vt 0.814842 0.507691
vt 0.801697 0.042897
vt 0.868190 0.280567
vt 0.883091 0.505250
vt 0.883672 0.518730
vt 0.810732 0.523209
vt 0.788983 0.035129
vt 0.802080 0.518161
vt 0.796557 0.028687
vt 0.870274 0.008318
vt 0.871517 0.022993
vt 0.880428 0.284017
vt 0.895622 0.511201
vt 0.883782 0.016208
vt 0.928129 0.539527
vt 0.928129 0.987338
vt 0.480318 0.987338
vt 0.480318 0.539527
vt 0.989570 0.486323
vt 0.988466 0.994679
vt 0.957671 0.963655
vt 0.957215 0.517772
vt 0.715955 0.016721
vt 0.716678 0.522504
vt 0.680481 0.484934
vt 0.680251 0.053575
vt 0.572951 0.529440
vt 0.572690 0.022020
vt 0.601957 0.051868
vt 0.604065 0.498030
vt 0.945853 0.485647
vt 0.942093 0.048397
vt 0.969493 0.047791
vt 0.971863 0.485912
vt 0.934001 0.963656
vt 0.934001 0.517772
vt 0.653306 0.485393
vt 0.653306 0.053756
vt 0.625179 0.051758
vt 0.627287 0.497921
vt 0.563762 0.022003
vt 0.572569 0.013664
vt 0.720235 0.010376
vt 0.722805 0.528967
vt 0.995880 0.994679
vt 0.996414 0.486372
vt 0.564906 0.529163
vt 0.908582 0.523027
vt 0.904509 0.012073
vt 0.813758 0.507691
vt 0.800613 0.042897
vt 0.867107 0.280567
vt 0.882008 0.505250
vt 0.882589 0.518730
vt 0.809649 0.523209
vt 0.787900 0.035129
vt 0.802235 0.517879
vt 0.796456 0.028584
vt 0.869191 0.008318
vt 0.870434 0.022993
vt 0.880352 0.284219
vt 0.894539 0.511201
vt 0.883731 0.016446
vt 0.467829 0.082779
vt 0.467829 0.530589
vt 0.020019 0.530589
vt 0.020019 0.082779
vt 0.897921 0.009594
vt 0.904511 0.012061
vt 0.908647 0.523056
vt 0.900866 0.525661
vt 0.534174 0.499572
vt 0.533261 0.054404
vt 0.716181 0.016484
vt 0.716562 0.522246
vt 0.680822 0.485056
vt 0.680311 0.053614
vt 0.006155 0.016575
vt 0.502529 0.014633
vt 0.471416 0.046042
vt 0.036588 0.047239
vt 0.945761 0.485801
vt 0.942130 0.048389
vt 0.969459 0.047823
vt 0.971863 0.485870
vt 0.510047 0.499344
vt 0.510047 0.054404
vt 0.653339 0.485488
vt 0.653127 0.054235
vt 0.471525 0.069264
vt 0.036287 0.071373
vt 0.502495 0.007216
vt 0.509089 0.005223
vt 0.722998 0.528937
vt 0.006043 0.009620
vt 0.814842 0.508128
vt 0.801697 0.043334
vt 0.868190 0.281004
vt 0.883091 0.505687
vt 0.883672 0.519167
vt 0.810732 0.523646
vt 0.788983 0.035566
vt 0.802080 0.518597
vt 0.796403 0.028814
vt 0.870274 0.008755
vt 0.871517 0.023430
vt 0.880428 0.284454
vt 0.895622 0.511638
vt 0.883782 0.016645
vn 0.0000 0.0000 1.0000
vn 0.3121 -0.3180 0.8953
vn 0.3132 0.3281 0.8912
vn 0.0008 0.0004 1.0000
vn 0.0002 -0.0099 1.0000
vn -0.3412 0.3444 0.8746
vn -0.0074 -0.0001 1.0000
vn -0.3135 -0.3048 0.8994
vn -0.0080 -0.0104 0.9999
vn -0.0000 1.0000 -0.0000
vn -1.0000 -0.0000 0.0000
vn 0.0000 -1.0000 0.0000
vn 1.0000 0.0000 -0.0000
vn 0.0085 -0.0085 0.9999
vn 0.0081 -0.0074 0.9999
vn 0.0085 -0.0084 0.9999
vn 0.5140 0.6495 0.5603
vn -0.6846 0.6649 0.2986
vn -0.6477 -0.5660 0.5100
vn 0.7109 -0.7012 0.0535
vn 0.6879 -0.7243 0.0480
vn 0.7210 -0.6906 0.0559
vn 0.0080 -0.0072 0.9999
vn 0.7429 -0.6665 0.0614
vn 0.8727 0.3461 -0.3445
vn 0.8598 0.3432 0.3780
vn 0.8601 -0.3478 0.3733
vn 0.8722 -0.3579 -0.3333
vn -0.0000 -0.0000 -1.0000
vn 0.3279 -0.8683 0.3722
vn 0.3271 -0.8765 -0.3531
vn 0.9999 0.0085 -0.0085
vn 0.9999 0.0081 -0.0074
vn 0.9999 0.0085 -0.0084
vn 0.5603 0.5140 0.6495
vn 0.2986 -0.6846 0.6649
vn 0.5100 -0.6477 -0.5660
vn 0.0535 0.7109 -0.7012
vn 0.0480 0.6879 -0.7243
vn 0.0559 0.7210 -0.6906
vn 0.9999 0.0080 -0.0072
vn 0.0614 0.7429 -0.6665
vn -0.3198 -0.8605 0.3965
vn -0.3266 -0.8763 -0.3542
vn -0.8648 -0.3404 0.3691
vn -0.8721 -0.3590 -0.3325
vn 0.0085 -0.9999 -0.0085
vn 0.0081 -0.9999 -0.0074
vn 0.0085 -0.9999 -0.0084
vn 0.5140 -0.5603 0.6495
vn -0.6846 -0.2986 0.6649
vn -0.6477 -0.5100 -0.5660
vn 0.7109 -0.0535 -0.7012
vn 0.6879 -0.0480 -0.7243
vn 0.7210 -0.0559 -0.6906
vn 0.0080 -0.9999 -0.0072
vn 0.7429 -0.0614 -0.6665
vn -0.3150 0.8900 -0.3297
vn -0.3298 0.8819 0.3368
vn -0.0008 1.0000 0.0004
vn -0.0008 1.0000 -0.0010
vn 0.3278 0.8752 0.3558
vn 0.0003 1.0000 0.0004
vn 0.3333 0.8838 -0.3283
vn 0.0003 1.0000 -0.0010
vn -0.0085 0.9999 -0.0085
vn -0.0081 0.9999 -0.0074
vn -0.0085 0.9999 -0.0084
vn -0.5140 0.5603 0.6495
vn 0.6846 0.2986 0.6649
vn 0.6477 0.5100 -0.5660
vn -0.7109 0.0535 -0.7012
vn -0.6879 0.0480 -0.7243
vn -0.7210 0.0559 -0.6906
vn -0.0080 0.9999 -0.0072
vn -0.7429 0.0614 -0.6665
vn -0.8689 0.3755 0.3224
vn -0.8652 0.3706 -0.3378
vn 0.2945 -0.0000 -0.9556
vn -0.2945 0.0000 0.9556
vn -0.3384 -0.3410 -0.8770
vn -0.3361 0.3602 -0.8702
vn -0.9999 -0.0085 0.0085
vn -0.9999 -0.0074 0.0081
vn -0.9999 -0.0084 0.0085
vn -0.5603 0.6495 0.5140
vn -0.2986 0.6649 -0.6846
vn -0.5100 -0.5660 -0.6477
vn -0.0535 -0.7012 0.7109
vn -0.0480 -0.7243 0.6879
vn -0.0559 -0.6906 0.7210
vn -0.9999 -0.0072 0.0080
vn -0.0614 -0.6665 0.7429
vn 0.3376 -0.3419 -0.8770
vn 0.3344 0.3630 -0.8697
vn -0.0085 -0.0085 -0.9999
vn -0.0081 -0.0074 -0.9999
vn -0.0085 -0.0084 -0.9999
vn -0.5140 0.6495 -0.5603
vn 0.6846 0.6649 -0.2986
vn 0.6477 -0.5660 -0.5100
vn -0.7109 -0.7012 -0.0535
vn -0.6879 -0.7243 -0.0480
vn -0.7210 -0.6906 -0.0559
vn -0.0080 -0.0072 -0.9999
vn -0.7429 -0.6665 -0.0614
s 1
f 5/1/1 6/2/1 7/3/1 8/4/1
f 9/5/2 73/6/3 3/7/4 2/8/5
f 73/9/3 85/10/6 4/11/7 3/12/4
f 85/13/6 95/14/8 1/15/9 4/16/7
f 1/17/10 2/18/10 6/19/10 5/20/10
f 2/8/11 3/7/11 7/21/11 6/22/11
f 3/12/12 4/11/12 8/23/12 7/24/12
f 4/16/13 1/15/13 5/25/13 8/26/13
f 2/18/5 1/17/9 95/27/8 9/28/2
f 14/29/14 17/30/15 18/31/16 13/32/14
f 10/33/17 11/34/17 14/29/17 13/32/17
f 16/35/18 17/30/18 14/29/18 11/36/18
f 16/37/19 12/38/19 15/39/19 17/30/19
f 19/40/20 10/41/21 13/32/21 18/31/22
f 17/30/15 15/39/23 18/31/16
f 15/39/24 12/42/24 19/40/20 18/31/22
f 25/43/13 26/44/13 27/45/13 28/46/13
f 29/47/25 30/48/26 23/49/13 22/50/13
f 30/51/26 20/52/27 24/53/13 23/54/13
f 20/55/27 32/56/28 21/57/13 24/58/13
f 21/59/1 22/60/1 26/61/1 25/62/1
f 22/50/12 23/49/12 27/63/12 26/64/12
f 23/54/29 24/53/29 28/65/29 27/66/29
f 24/58/10 21/57/10 25/67/10 28/68/10
f 20/52/27 9/5/2 31/69/30
f 9/5/2 20/52/27 30/51/26 73/6/3
f 121/70/31 32/56/28 20/55/27 31/71/30
f 22/60/13 21/59/13 32/72/28 29/73/25
f 37/74/32 40/75/33 41/76/34 36/77/32
f 33/78/35 34/79/35 37/74/35 36/77/35
f 39/80/36 40/75/36 37/74/36 34/81/36
f 39/82/37 35/83/37 38/84/37 40/75/37
f 42/85/38 33/86/39 36/77/39 41/76/40
f 40/75/33 38/84/41 41/76/34
f 38/84/42 35/87/42 42/85/38 41/76/40
f 48/88/12 49/89/12 50/90/12 51/91/12
f 121/70/31 31/71/30 46/92/12 45/93/12
f 31/94/30 43/95/43 47/96/12 46/97/12
f 43/98/43 101/99/44 44/100/12 47/101/12
f 44/102/1 45/103/1 49/104/1 48/105/1
f 45/93/11 46/92/11 50/106/11 49/107/11
f 46/97/29 47/96/29 51/108/29 50/109/29
f 47/101/13 44/100/13 48/110/13 51/111/13
f 43/95/43 95/27/8 96/112/45
f 95/27/8 43/95/43 31/94/30 9/28/2
f 52/113/46 101/99/44 43/98/43 96/114/45
f 45/103/12 44/102/12 101/115/44 121/116/31
f 57/117/47 60/118/48 61/119/49 56/120/47
f 53/121/50 54/122/50 57/117/50 56/120/50
f 59/123/51 60/118/51 57/117/51 54/124/51
f 59/125/52 55/126/52 58/127/52 60/118/52
f 62/128/53 53/129/54 56/120/54 61/119/55
f 60/118/48 58/127/56 61/119/49
f 58/127/57 55/130/57 62/128/53 61/119/55
f 68/131/10 69/132/10 70/133/10 71/134/10
f 72/135/58 98/136/59 66/137/60 65/138/61
f 98/139/59 63/140/62 67/141/63 66/142/60
f 63/143/62 74/144/64 64/145/65 67/146/63
f 64/147/1 65/148/1 69/149/1 68/150/1
f 65/138/13 66/137/13 70/151/13 69/152/13
f 66/142/29 67/141/29 71/153/29 70/154/29
f 67/146/11 64/145/11 68/155/11 71/156/11
f 63/140/62 73/157/3 30/158/26
f 73/157/3 63/140/62 98/139/59 85/159/6
f 29/160/25 74/144/64 63/143/62 30/161/26
f 65/148/61 64/147/65 74/162/64 72/163/58
f 79/164/66 82/165/67 83/166/68 78/167/66
f 75/168/69 76/169/69 79/164/69 78/167/69
f 81/170/70 82/165/70 79/164/70 76/171/70
f 81/172/71 77/173/71 80/174/71 82/165/71
f 84/175/72 75/176/73 78/167/73 83/166/74
f 82/165/67 80/174/75 83/166/68
f 80/174/76 77/177/76 84/175/72 83/166/74
f 91/178/11 92/179/11 93/180/11 94/181/11
f 96/182/45 99/183/77 89/184/11 88/185/11
f 99/186/77 86/187/78 90/188/11 89/189/11
f 86/190/78 52/191/46 87/192/11 90/193/11
f 87/194/10 88/195/10 92/196/10 91/197/10
f 88/185/79 89/184/79 93/198/79 92/199/79
f 89/189/12 90/188/12 94/200/12 93/201/12
f 90/193/80 87/192/80 91/202/80 94/203/80
f 52/191/46 97/204/81 101/205/44
f 85/206/6 98/136/59 99/186/77
f 86/187/78 72/135/58 100/207/82
f 72/135/58 86/187/78 99/186/77 98/136/59
f 85/208/6 99/183/77 96/182/45 95/209/8
f 97/204/81 52/191/46 86/190/78 100/210/82
f 88/195/11 87/194/11 52/211/46 96/212/45
f 106/213/83 109/214/84 110/215/85 105/216/83
f 102/217/86 103/218/86 106/213/86 105/216/86
f 108/219/87 109/214/87 106/213/87 103/220/87
f 108/221/88 104/222/88 107/223/88 109/214/88
f 111/224/89 102/225/90 105/216/90 110/215/91
f 109/214/84 107/223/92 110/215/85
f 107/223/93 104/226/93 111/224/89 110/215/91
f 117/227/29 118/228/29 119/229/29 120/230/29
f 101/231/44 97/232/81 122/233/94 121/234/31
f 97/204/81 100/210/82 115/235/29 114/236/29
f 100/237/82 112/238/95 116/239/29 115/240/29
f 112/241/95 122/242/94 113/243/29 116/244/29
f 113/245/10 114/246/10 118/247/10 117/248/10
f 114/236/13 115/235/13 119/249/13 118/250/13
f 115/240/12 116/239/12 120/251/12 119/252/12
f 116/244/11 113/243/11 117/253/11 120/254/11
f 122/242/94 32/255/28 121/256/31
f 112/238/95 74/162/64 29/257/25
f 74/162/64 112/238/95 100/237/82 72/163/58
f 32/255/28 122/242/94 112/241/95 29/258/25
f 114/246/29 113/245/29 122/233/94 97/232/81
f 127/259/96 130/260/97 131/261/98 126/262/96
f 123/263/99 124/264/99 127/259/99 126/262/99
f 129/265/100 130/260/100 127/259/100 124/266/100
f 129/267/101 125/268/101 128/269/101 130/260/101
f 132/270/102 123/271/103 126/262/103 131/261/104
f 130/260/97 128/269/105 131/261/98
f 128/269/106 125/272/106 132/270/102 131/261/104
